<mxfile host="app.diagrams.net" modified="2024-01-04T13:11:26.056Z" agent="Mozilla/5.0 (Windows NT 10.0; Win64; x64) AppleWebKit/537.36 (KHTML, like Gecko) Chrome/120.0.0.0 Safari/537.36" etag="avyeueKydftEMMffqD4m" version="22.1.16" type="device">
  <diagram name="Page-1" id="2YBvvXClWsGukQMizWep">
    <mxGraphModel dx="1122" dy="524" grid="1" gridSize="10" guides="1" tooltips="1" connect="1" arrows="1" fold="1" page="1" pageScale="1" pageWidth="850" pageHeight="1100" math="0" shadow="0">
      <root>
        <mxCell id="0" />
        <mxCell id="1" parent="0" />
        <mxCell id="18E1qE_Lyfn3QpLnvs8r-1" value="" style="shape=umlLifeline;perimeter=lifelinePerimeter;whiteSpace=wrap;html=1;container=1;dropTarget=0;collapsible=0;recursiveResize=0;outlineConnect=0;portConstraint=eastwest;newEdgeStyle={&quot;curved&quot;:0,&quot;rounded&quot;:0};participant=umlActor;" parent="1" vertex="1">
          <mxGeometry x="70" y="50" width="20" height="300" as="geometry" />
        </mxCell>
        <mxCell id="a0aLw1cEMb4SBgfnyB8V-12" value="" style="html=1;points=[[0,0,0,0,5],[0,1,0,0,-5],[1,0,0,0,5],[1,1,0,0,-5]];perimeter=orthogonalPerimeter;outlineConnect=0;targetShapes=umlLifeline;portConstraint=eastwest;newEdgeStyle={&quot;curved&quot;:0,&quot;rounded&quot;:0};" vertex="1" parent="18E1qE_Lyfn3QpLnvs8r-1">
          <mxGeometry x="5" y="60" width="10" height="80" as="geometry" />
        </mxCell>
        <mxCell id="a0aLw1cEMb4SBgfnyB8V-24" value="" style="html=1;points=[[0,0,0,0,5],[0,1,0,0,-5],[1,0,0,0,5],[1,1,0,0,-5]];perimeter=orthogonalPerimeter;outlineConnect=0;targetShapes=umlLifeline;portConstraint=eastwest;newEdgeStyle={&quot;curved&quot;:0,&quot;rounded&quot;:0};" vertex="1" parent="18E1qE_Lyfn3QpLnvs8r-1">
          <mxGeometry x="5" y="180" width="10" height="80" as="geometry" />
        </mxCell>
        <mxCell id="a0aLw1cEMb4SBgfnyB8V-1" value="&amp;nbsp; &amp;nbsp; &amp;nbsp;Form Keluhan" style="shape=umlLifeline;perimeter=lifelinePerimeter;whiteSpace=wrap;html=1;container=1;dropTarget=0;collapsible=0;recursiveResize=0;outlineConnect=0;portConstraint=eastwest;newEdgeStyle={&quot;curved&quot;:0,&quot;rounded&quot;:0};participant=umlBoundary;" vertex="1" parent="1">
          <mxGeometry x="150" y="50" width="100" height="300" as="geometry" />
        </mxCell>
        <mxCell id="a0aLw1cEMb4SBgfnyB8V-3" value="" style="html=1;points=[[0,0,0,0,5],[0,1,0,0,-5],[1,0,0,0,5],[1,1,0,0,-5]];perimeter=orthogonalPerimeter;outlineConnect=0;targetShapes=umlLifeline;portConstraint=eastwest;newEdgeStyle={&quot;curved&quot;:0,&quot;rounded&quot;:0};" vertex="1" parent="a0aLw1cEMb4SBgfnyB8V-1">
          <mxGeometry x="45" y="60" width="10" height="80" as="geometry" />
        </mxCell>
        <mxCell id="a0aLw1cEMb4SBgfnyB8V-2" value="&amp;nbsp; &amp;nbsp; Form Saran" style="shape=umlLifeline;perimeter=lifelinePerimeter;whiteSpace=wrap;html=1;container=1;dropTarget=0;collapsible=0;recursiveResize=0;outlineConnect=0;portConstraint=eastwest;newEdgeStyle={&quot;curved&quot;:0,&quot;rounded&quot;:0};participant=umlBoundary;" vertex="1" parent="1">
          <mxGeometry x="300" y="50" width="110" height="300" as="geometry" />
        </mxCell>
        <mxCell id="a0aLw1cEMb4SBgfnyB8V-4" value="" style="html=1;points=[[0,0,0,0,5],[0,1,0,0,-5],[1,0,0,0,5],[1,1,0,0,-5]];perimeter=orthogonalPerimeter;outlineConnect=0;targetShapes=umlLifeline;portConstraint=eastwest;newEdgeStyle={&quot;curved&quot;:0,&quot;rounded&quot;:0};" vertex="1" parent="a0aLw1cEMb4SBgfnyB8V-2">
          <mxGeometry x="50" y="140" width="10" height="80" as="geometry" />
        </mxCell>
        <mxCell id="a0aLw1cEMb4SBgfnyB8V-6" value="From Controll" style="shape=umlLifeline;perimeter=lifelinePerimeter;whiteSpace=wrap;html=1;container=1;dropTarget=0;collapsible=0;recursiveResize=0;outlineConnect=0;portConstraint=eastwest;newEdgeStyle={&quot;curved&quot;:0,&quot;rounded&quot;:0};participant=umlControl;" vertex="1" parent="1">
          <mxGeometry x="480" y="50" width="90" height="300" as="geometry" />
        </mxCell>
        <mxCell id="a0aLw1cEMb4SBgfnyB8V-9" value="" style="html=1;points=[[0,0,0,0,5],[0,1,0,0,-5],[1,0,0,0,5],[1,1,0,0,-5]];perimeter=orthogonalPerimeter;outlineConnect=0;targetShapes=umlLifeline;portConstraint=eastwest;newEdgeStyle={&quot;curved&quot;:0,&quot;rounded&quot;:0};" vertex="1" parent="a0aLw1cEMb4SBgfnyB8V-6">
          <mxGeometry x="40" y="60" width="10" height="200" as="geometry" />
        </mxCell>
        <mxCell id="a0aLw1cEMb4SBgfnyB8V-10" style="edgeStyle=orthogonalEdgeStyle;rounded=0;orthogonalLoop=1;jettySize=auto;html=1;curved=0;exitX=1;exitY=0;exitDx=0;exitDy=5;exitPerimeter=0;" edge="1" parent="1" source="a0aLw1cEMb4SBgfnyB8V-3" target="a0aLw1cEMb4SBgfnyB8V-6">
          <mxGeometry relative="1" as="geometry">
            <Array as="points">
              <mxPoint x="205" y="150" />
            </Array>
          </mxGeometry>
        </mxCell>
        <mxCell id="a0aLw1cEMb4SBgfnyB8V-11" style="edgeStyle=orthogonalEdgeStyle;rounded=0;orthogonalLoop=1;jettySize=auto;html=1;curved=0;exitX=1;exitY=1;exitDx=0;exitDy=-5;exitPerimeter=0;" edge="1" parent="1" source="a0aLw1cEMb4SBgfnyB8V-4" target="a0aLw1cEMb4SBgfnyB8V-9">
          <mxGeometry relative="1" as="geometry">
            <Array as="points">
              <mxPoint x="360" y="210" />
            </Array>
          </mxGeometry>
        </mxCell>
        <mxCell id="a0aLw1cEMb4SBgfnyB8V-13" style="edgeStyle=orthogonalEdgeStyle;rounded=0;orthogonalLoop=1;jettySize=auto;html=1;curved=0;exitX=1;exitY=0;exitDx=0;exitDy=5;exitPerimeter=0;entryX=0;entryY=0;entryDx=0;entryDy=5;entryPerimeter=0;" edge="1" parent="1" source="a0aLw1cEMb4SBgfnyB8V-12" target="a0aLw1cEMb4SBgfnyB8V-3">
          <mxGeometry relative="1" as="geometry" />
        </mxCell>
        <mxCell id="a0aLw1cEMb4SBgfnyB8V-14" value="From_db" style="shape=umlLifeline;perimeter=lifelinePerimeter;whiteSpace=wrap;html=1;container=1;dropTarget=0;collapsible=0;recursiveResize=0;outlineConnect=0;portConstraint=eastwest;newEdgeStyle={&quot;curved&quot;:0,&quot;rounded&quot;:0};participant=umlEntity;" vertex="1" parent="1">
          <mxGeometry x="620" y="50" width="70" height="300" as="geometry" />
        </mxCell>
        <mxCell id="a0aLw1cEMb4SBgfnyB8V-15" value="" style="html=1;points=[[0,0,0,0,5],[0,1,0,0,-5],[1,0,0,0,5],[1,1,0,0,-5]];perimeter=orthogonalPerimeter;outlineConnect=0;targetShapes=umlLifeline;portConstraint=eastwest;newEdgeStyle={&quot;curved&quot;:0,&quot;rounded&quot;:0};" vertex="1" parent="a0aLw1cEMb4SBgfnyB8V-14">
          <mxGeometry x="30" y="100" width="10" height="80" as="geometry" />
        </mxCell>
        <mxCell id="a0aLw1cEMb4SBgfnyB8V-16" style="edgeStyle=orthogonalEdgeStyle;rounded=0;orthogonalLoop=1;jettySize=auto;html=1;curved=0;exitX=1;exitY=0;exitDx=0;exitDy=5;exitPerimeter=0;" edge="1" parent="1" source="a0aLw1cEMb4SBgfnyB8V-9" target="a0aLw1cEMb4SBgfnyB8V-15">
          <mxGeometry relative="1" as="geometry">
            <Array as="points">
              <mxPoint x="530" y="190" />
            </Array>
          </mxGeometry>
        </mxCell>
        <mxCell id="a0aLw1cEMb4SBgfnyB8V-17" value="" style="shape=umlLifeline;perimeter=lifelinePerimeter;whiteSpace=wrap;html=1;container=1;dropTarget=0;collapsible=0;recursiveResize=0;outlineConnect=0;portConstraint=eastwest;newEdgeStyle={&quot;curved&quot;:0,&quot;rounded&quot;:0};participant=umlActor;" vertex="1" parent="1">
          <mxGeometry x="760" y="50" width="20" height="300" as="geometry" />
        </mxCell>
        <mxCell id="a0aLw1cEMb4SBgfnyB8V-18" value="" style="html=1;points=[[0,0,0,0,5],[0,1,0,0,-5],[1,0,0,0,5],[1,1,0,0,-5]];perimeter=orthogonalPerimeter;outlineConnect=0;targetShapes=umlLifeline;portConstraint=eastwest;newEdgeStyle={&quot;curved&quot;:0,&quot;rounded&quot;:0};" vertex="1" parent="a0aLw1cEMb4SBgfnyB8V-17">
          <mxGeometry x="5" y="100" width="10" height="80" as="geometry" />
        </mxCell>
        <mxCell id="a0aLw1cEMb4SBgfnyB8V-19" value="" style="shape=umlLifeline;perimeter=lifelinePerimeter;whiteSpace=wrap;html=1;container=1;dropTarget=0;collapsible=0;recursiveResize=0;outlineConnect=0;portConstraint=eastwest;newEdgeStyle={&quot;curved&quot;:0,&quot;rounded&quot;:0};participant=umlActor;" vertex="1" parent="1">
          <mxGeometry x="900" y="50" width="20" height="300" as="geometry" />
        </mxCell>
        <mxCell id="a0aLw1cEMb4SBgfnyB8V-20" value="" style="html=1;points=[[0,0,0,0,5],[0,1,0,0,-5],[1,0,0,0,5],[1,1,0,0,-5]];perimeter=orthogonalPerimeter;outlineConnect=0;targetShapes=umlLifeline;portConstraint=eastwest;newEdgeStyle={&quot;curved&quot;:0,&quot;rounded&quot;:0};" vertex="1" parent="a0aLw1cEMb4SBgfnyB8V-19">
          <mxGeometry x="5" y="100" width="10" height="80" as="geometry" />
        </mxCell>
        <mxCell id="a0aLw1cEMb4SBgfnyB8V-22" style="edgeStyle=orthogonalEdgeStyle;rounded=0;orthogonalLoop=1;jettySize=auto;html=1;curved=0;exitX=1;exitY=0;exitDx=0;exitDy=5;exitPerimeter=0;" edge="1" parent="1" source="a0aLw1cEMb4SBgfnyB8V-18" target="a0aLw1cEMb4SBgfnyB8V-20">
          <mxGeometry relative="1" as="geometry">
            <Array as="points">
              <mxPoint x="775" y="190" />
            </Array>
          </mxGeometry>
        </mxCell>
        <mxCell id="a0aLw1cEMb4SBgfnyB8V-23" value="Mengisi Form" style="text;html=1;strokeColor=none;fillColor=none;align=center;verticalAlign=middle;whiteSpace=wrap;rounded=0;" vertex="1" parent="1">
          <mxGeometry x="110" y="80" width="60" height="30" as="geometry" />
        </mxCell>
        <mxCell id="a0aLw1cEMb4SBgfnyB8V-25" style="edgeStyle=orthogonalEdgeStyle;rounded=0;orthogonalLoop=1;jettySize=auto;html=1;curved=0;exitX=1;exitY=0;exitDx=0;exitDy=5;exitPerimeter=0;" edge="1" parent="1" source="a0aLw1cEMb4SBgfnyB8V-24" target="a0aLw1cEMb4SBgfnyB8V-2">
          <mxGeometry relative="1" as="geometry">
            <Array as="points">
              <mxPoint x="310" y="235" />
              <mxPoint x="310" y="235" />
            </Array>
          </mxGeometry>
        </mxCell>
        <mxCell id="a0aLw1cEMb4SBgfnyB8V-26" value="Mengisi Form" style="text;html=1;strokeColor=none;fillColor=none;align=center;verticalAlign=middle;whiteSpace=wrap;rounded=0;" vertex="1" parent="1">
          <mxGeometry x="110" y="200" width="60" height="30" as="geometry" />
        </mxCell>
        <mxCell id="a0aLw1cEMb4SBgfnyB8V-27" value="CheckViableData()" style="text;html=1;strokeColor=none;fillColor=none;align=center;verticalAlign=middle;whiteSpace=wrap;rounded=0;" vertex="1" parent="1">
          <mxGeometry x="250" y="120" width="60" height="30" as="geometry" />
        </mxCell>
        <mxCell id="a0aLw1cEMb4SBgfnyB8V-28" value="CheckViableData()" style="text;html=1;strokeColor=none;fillColor=none;align=center;verticalAlign=middle;whiteSpace=wrap;rounded=0;" vertex="1" parent="1">
          <mxGeometry x="410" y="180" width="60" height="30" as="geometry" />
        </mxCell>
        <mxCell id="a0aLw1cEMb4SBgfnyB8V-29" value="AddData()" style="text;html=1;strokeColor=none;fillColor=none;align=center;verticalAlign=middle;whiteSpace=wrap;rounded=0;" vertex="1" parent="1">
          <mxGeometry x="560" y="160" width="60" height="30" as="geometry" />
        </mxCell>
        <mxCell id="a0aLw1cEMb4SBgfnyB8V-31" style="edgeStyle=orthogonalEdgeStyle;rounded=0;orthogonalLoop=1;jettySize=auto;html=1;curved=0;exitX=0;exitY=0;exitDx=0;exitDy=5;exitPerimeter=0;entryX=1;entryY=0;entryDx=0;entryDy=5;entryPerimeter=0;" edge="1" parent="1" source="a0aLw1cEMb4SBgfnyB8V-18" target="a0aLw1cEMb4SBgfnyB8V-15">
          <mxGeometry relative="1" as="geometry" />
        </mxCell>
        <mxCell id="a0aLw1cEMb4SBgfnyB8V-32" value="" style="endArrow=block;dashed=1;endFill=0;endSize=12;html=1;rounded=0;exitX=1;exitY=1;exitDx=0;exitDy=-5;exitPerimeter=0;" edge="1" parent="1" source="a0aLw1cEMb4SBgfnyB8V-15" target="a0aLw1cEMb4SBgfnyB8V-18">
          <mxGeometry width="160" relative="1" as="geometry">
            <mxPoint x="670" y="230" as="sourcePoint" />
            <mxPoint x="830" y="230" as="targetPoint" />
          </mxGeometry>
        </mxCell>
        <mxCell id="a0aLw1cEMb4SBgfnyB8V-33" value="Get Data dan Check" style="text;html=1;strokeColor=none;fillColor=none;align=center;verticalAlign=middle;whiteSpace=wrap;rounded=0;" vertex="1" parent="1">
          <mxGeometry x="680" y="120" width="60" height="30" as="geometry" />
        </mxCell>
        <mxCell id="a0aLw1cEMb4SBgfnyB8V-34" value="Viable Data" style="text;html=1;strokeColor=none;fillColor=none;align=center;verticalAlign=middle;whiteSpace=wrap;rounded=0;" vertex="1" parent="1">
          <mxGeometry x="680" y="190" width="60" height="30" as="geometry" />
        </mxCell>
        <mxCell id="a0aLw1cEMb4SBgfnyB8V-35" value="Mengirim keluhan/feedback" style="text;html=1;strokeColor=none;fillColor=none;align=center;verticalAlign=middle;whiteSpace=wrap;rounded=0;" vertex="1" parent="1">
          <mxGeometry x="810" y="160" width="60" height="30" as="geometry" />
        </mxCell>
        <mxCell id="a0aLw1cEMb4SBgfnyB8V-38" value="Player" style="text;html=1;strokeColor=none;fillColor=none;align=center;verticalAlign=middle;whiteSpace=wrap;rounded=0;" vertex="1" parent="1">
          <mxGeometry x="50" y="10" width="60" height="30" as="geometry" />
        </mxCell>
        <mxCell id="a0aLw1cEMb4SBgfnyB8V-39" value="Admin" style="text;html=1;strokeColor=none;fillColor=none;align=center;verticalAlign=middle;whiteSpace=wrap;rounded=0;" vertex="1" parent="1">
          <mxGeometry x="740" y="20" width="60" height="30" as="geometry" />
        </mxCell>
        <mxCell id="a0aLw1cEMb4SBgfnyB8V-40" value="Developer" style="text;html=1;strokeColor=none;fillColor=none;align=center;verticalAlign=middle;whiteSpace=wrap;rounded=0;" vertex="1" parent="1">
          <mxGeometry x="880" y="20" width="60" height="30" as="geometry" />
        </mxCell>
      </root>
    </mxGraphModel>
  </diagram>
</mxfile>
